HIERARCHY
ROOT Hips
{
	OFFSET 0.000000 100.481300 0.000000
	CHANNELS 6 Xposition Yposition Zposition Xrotation Yrotation Zrotation 
	JOINT Spine
	{
		OFFSET -0.279200 12.230698 -2.892100
		CHANNELS 3 Xrotation Yrotation Zrotation
		JOINT Spine1
		{
			OFFSET -0.232667 10.192268 -1.242267
			CHANNELS 3 Xrotation Yrotation Zrotation
			JOINT Spine1_split
			{
				OFFSET -0.232667 10.192268 -1.242267
				CHANNELS 3 Xrotation Yrotation Zrotation
				JOINT Spine2
				{
					OFFSET -0.232667 10.192268 -1.242267
					CHANNELS 3 Xrotation Yrotation Zrotation
					JOINT Neck
					{
						OFFSET -0.418800 17.814194 8.416900
						CHANNELS 3 Xrotation Yrotation Zrotation
						JOINT Head
						{
							OFFSET 0.000000 7.031097 3.806800
							CHANNELS 3 Xrotation Yrotation Zrotation
							JOINT HeadTop_End
							{
								OFFSET 0.000000 24.646606 12.978600
								CHANNELS 3 Xrotation Yrotation Zrotation
								End Site
								{
									OFFSET 0.000000 0.000000 0.000000
								}
							}
						}
					}
					JOINT LeftShoulder
					{
						OFFSET 8.476499 7.247704 -3.868750
						CHANNELS 3 Xrotation Yrotation Zrotation
						JOINT LeftShoulder_split
						{
							OFFSET 8.476499 7.247704 -3.868750
							CHANNELS 3 Xrotation Yrotation Zrotation
							JOINT LeftArm
							{
								OFFSET 9.308998 -2.777710 0.208600
								CHANNELS 3 Xrotation Yrotation Zrotation
								JOINT LeftForeArm
								{
									OFFSET 29.972298 0.000000 0.000000
									CHANNELS 3 Xrotation Yrotation Zrotation
									JOINT LeftHand
									{
										OFFSET 26.026505 0.000000 0.000000
										CHANNELS 3 Xrotation Yrotation Zrotation
										JOINT LeftHandThumb1
										{
											OFFSET 12.240501 -7.147949 9.207150
											CHANNELS 3 Xrotation Yrotation Zrotation
											JOINT LeftHandThumb2
											{
												OFFSET 4.138618 -2.389435 2.389433
												CHANNELS 3 Xrotation Yrotation Zrotation
												JOINT LeftHandThumb3
												{
													OFFSET 2.726913 -1.574387 1.574386
													CHANNELS 3 Xrotation Yrotation Zrotation
													JOINT LeftHandThumb4
													{
														OFFSET 3.941010 -2.275345 2.275342
														CHANNELS 3 Xrotation Yrotation Zrotation
														End Site
														{
															OFFSET 0.000000 0.000000 0.000000
														}
													}
												}
											}
										}
										JOINT LeftHandIndex1
										{
											OFFSET 24.424698 -1.985611 5.953459
											CHANNELS 3 Xrotation Yrotation Zrotation
											JOINT LeftHandIndex2
											{
												OFFSET 6.426697 0.000000 0.000000
												CHANNELS 3 Xrotation Yrotation Zrotation
												JOINT LeftHandIndex3
												{
													OFFSET 5.337898 0.000000 0.000000
													CHANNELS 3 Xrotation Yrotation Zrotation
													JOINT LeftHandIndex4
													{
														OFFSET 4.409401 0.000000 0.000000
														CHANNELS 3 Xrotation Yrotation Zrotation
														End Site
														{
															OFFSET 0.000000 0.000000 0.000000
														}
													}
												}
											}
										}
										JOINT LeftHandMiddle1
										{
											OFFSET 23.810104 0.000000 0.000000
											CHANNELS 3 Xrotation Yrotation Zrotation
											JOINT LeftHandMiddle2
											{
												OFFSET 7.176498 0.000000 0.000000
												CHANNELS 3 Xrotation Yrotation Zrotation
												JOINT LeftHandMiddle3
												{
													OFFSET 6.774902 0.000000 0.000000
													CHANNELS 3 Xrotation Yrotation Zrotation
													JOINT LeftHandMiddle4
													{
														OFFSET 5.403328 0.000000 0.000000
														CHANNELS 3 Xrotation Yrotation Zrotation
														End Site
														{
															OFFSET 0.000000 0.000000 0.000000
														}
													}
												}
											}
										}
										JOINT LeftHandRing1
										{
											OFFSET 22.908401 -0.839279 -6.020567
											CHANNELS 3 Xrotation Yrotation Zrotation
											JOINT LeftHandRing2
											{
												OFFSET 6.337502 0.000000 0.000000
												CHANNELS 3 Xrotation Yrotation Zrotation
												JOINT LeftHandRing3
												{
													OFFSET 5.779297 0.000000 0.000000
													CHANNELS 3 Xrotation Yrotation Zrotation
													JOINT LeftHandRing4
													{
														OFFSET 4.965698 0.000000 0.000000
														CHANNELS 3 Xrotation Yrotation Zrotation
														End Site
														{
															OFFSET 0.000000 0.000000 0.000000
														}
													}
												}
											}
										}
										JOINT LeftHandPinky1
										{
											OFFSET 20.037003 -1.530319 -10.950146
											CHANNELS 3 Xrotation Yrotation Zrotation
											JOINT LeftHandPinky2
											{
												OFFSET 5.254700 0.000000 0.000000
												CHANNELS 3 Xrotation Yrotation Zrotation
												JOINT LeftHandPinky3
												{
													OFFSET 4.810204 0.000000 0.000000
													CHANNELS 3 Xrotation Yrotation Zrotation
													JOINT LeftHandPinky4
													{
														OFFSET 3.647202 0.000000 0.000000
														CHANNELS 3 Xrotation Yrotation Zrotation
														End Site
														{
															OFFSET 0.000000 0.000000 0.000000
														}
													}
												}
											}
										}
									}
								}
							}
						}
					}
					JOINT RightShoulder
					{
						OFFSET -7.570500 7.247704 -3.868750
						CHANNELS 3 Xrotation Yrotation Zrotation
						JOINT RightShoulder_split
						{
							OFFSET -7.570500 7.247704 -3.868750
							CHANNELS 3 Xrotation Yrotation Zrotation
							JOINT RightArm
							{
								OFFSET -9.308998 -2.777710 0.208500
								CHANNELS 3 Xrotation Yrotation Zrotation
								JOINT RightForeArm
								{
									OFFSET -29.972300 0.000000 0.000000
									CHANNELS 3 Xrotation Yrotation Zrotation
									JOINT RightHand
									{
										OFFSET -26.026505 0.000000 0.000000
										CHANNELS 3 Xrotation Yrotation Zrotation
										JOINT RightHandThumb1
										{
											OFFSET -12.240601 -7.148026 9.207092
											CHANNELS 3 Xrotation Yrotation Zrotation
											JOINT RightHandThumb2
											{
												OFFSET -4.138618 -2.389435 2.389433
												CHANNELS 3 Xrotation Yrotation Zrotation
												JOINT RightHandThumb3
												{
													OFFSET -2.726974 -1.574417 1.574421
													CHANNELS 3 Xrotation Yrotation Zrotation
													JOINT RightHandThumb4
													{
														OFFSET -3.941010 -2.275345 2.275343
														CHANNELS 3 Xrotation Yrotation Zrotation
														End Site
														{
															OFFSET 0.000000 0.000000 0.000000
														}
													}
												}
											}
										}
										JOINT RightHandIndex1
										{
											OFFSET -24.424698 -1.985657 5.953444
											CHANNELS 3 Xrotation Yrotation Zrotation
											JOINT RightHandIndex2
											{
												OFFSET -6.426697 0.000000 0.000000
												CHANNELS 3 Xrotation Yrotation Zrotation
												JOINT RightHandIndex3
												{
													OFFSET -5.337898 0.000000 0.000000
													CHANNELS 3 Xrotation Yrotation Zrotation
													JOINT RightHandIndex4
													{
														OFFSET -4.409401 0.000000 0.000000
														CHANNELS 3 Xrotation Yrotation Zrotation
														End Site
														{
															OFFSET 0.000000 0.000000 0.000000
														}
													}
												}
											}
										}
										JOINT RightHandMiddle1
										{
											OFFSET -23.810097 0.000000 0.000000
											CHANNELS 3 Xrotation Yrotation Zrotation
											JOINT RightHandMiddle2
											{
												OFFSET -7.176498 0.000000 0.000000
												CHANNELS 3 Xrotation Yrotation Zrotation
												JOINT RightHandMiddle3
												{
													OFFSET -6.774902 0.000000 0.000000
													CHANNELS 3 Xrotation Yrotation Zrotation
													JOINT RightHandMiddle4
													{
														OFFSET -5.403328 0.000000 0.000000
														CHANNELS 3 Xrotation Yrotation Zrotation
														End Site
														{
															OFFSET 0.000000 0.000000 0.000000
														}
													}
												}
											}
										}
										JOINT RightHandRing1
										{
											OFFSET -22.908302 -0.839325 -6.020576
											CHANNELS 3 Xrotation Yrotation Zrotation
											JOINT RightHandRing2
											{
												OFFSET -6.337502 0.000000 0.000000
												CHANNELS 3 Xrotation Yrotation Zrotation
												JOINT RightHandRing3
												{
													OFFSET -5.779297 0.000000 0.000000
													CHANNELS 3 Xrotation Yrotation Zrotation
													JOINT RightHandRing4
													{
														OFFSET -4.965698 0.000000 0.000000
														CHANNELS 3 Xrotation Yrotation Zrotation
														End Site
														{
															OFFSET 0.000000 0.000000 0.000000
														}
													}
												}
											}
										}
										JOINT RightHandPinky1
										{
											OFFSET -20.037003 -1.530334 -10.950259
											CHANNELS 3 Xrotation Yrotation Zrotation
											JOINT RightHandPinky2
											{
												OFFSET -5.254700 0.000000 0.000000
												CHANNELS 3 Xrotation Yrotation Zrotation
												JOINT RightHandPinky3
												{
													OFFSET -4.810204 0.000000 0.000000
													CHANNELS 3 Xrotation Yrotation Zrotation
													JOINT RightHandPinky4
													{
														OFFSET -3.647202 0.000000 0.000000
														CHANNELS 3 Xrotation Yrotation Zrotation
														End Site
														{
															OFFSET 0.000000 0.000000 0.000000
														}
													}
												}
											}
										}
									}
								}
							}
						}
					}
				}
			}
		}
	}
	JOINT LeftUpLeg
	{
		OFFSET 15.427100 -6.655098 0.678600
		CHANNELS 3 Xrotation Yrotation Zrotation
		JOINT LeftLeg
		{
			OFFSET 4.081073 -39.591068 13.024000
			CHANNELS 3 Xrotation Yrotation Zrotation
			JOINT LeftFoot
			{
				OFFSET -4.081074 -37.707932 -15.979700
				CHANNELS 3 Xrotation Yrotation Zrotation
				JOINT LeftToeBase
				{
					OFFSET 5.346399 -15.068900 20.645000
					CHANNELS 3 Xrotation Yrotation Zrotation
					JOINT LeftToe_End
					{
						OFFSET 2.754700 0.931300 11.300900
						CHANNELS 3 Xrotation Yrotation Zrotation
						End Site
						{
							OFFSET 0.000000 0.000000 0.000000
						}
					}
				}
			}
		}
	}
	JOINT RightUpLeg
	{
		OFFSET -15.569500 -6.655098 0.678600
		CHANNELS 3 Xrotation Yrotation Zrotation
		JOINT RightLeg
		{
			OFFSET -4.081825 -39.591045 13.023800
			CHANNELS 3 Xrotation Yrotation Zrotation
			JOINT RightFoot
			{
				OFFSET 4.081824 -37.707954 -15.979600
				CHANNELS 3 Xrotation Yrotation Zrotation
				JOINT RightToeBase
				{
					OFFSET -5.346400 -15.068900 20.645000
					CHANNELS 3 Xrotation Yrotation Zrotation
					JOINT RightToe_End
					{
						OFFSET -2.754700 0.931300 11.300900
						CHANNELS 3 Xrotation Yrotation Zrotation
						End Site
						{
							OFFSET 0.000000 0.000000 0.000000
						}
					}
				}
			}
		}
	}
}
MOTION
Frames: 4
Frame Time: 0.016667
2.195105 72.839005 -1.714696 -5.400176 -46.432094 -0.526807 9.420034 7.435542 -1.366550 2.187716 0.989897 -0.915631 0.000000 0.000000 0.000000 2.202827 0.982781 -0.894154 0.084651 13.220549 4.538681 8.920922 20.138138 -4.130229 -0.000000 0.000000 0.000000 1.117180 3.546348 -8.633307 0.000000 0.000000 0.000000 -53.487010 4.935499 -51.502983 -0.000047 -106.358067 -0.000057 1.988608 -7.706153 -15.869263 -6.141223 -11.690799 -6.761686 9.914116 42.595519 3.409856 -0.422811 8.108096 27.509120 0.000001 -0.000000 0.000000 0.255309 3.378217 -45.814331 5.654090 5.847753 -88.067448 2.162143 4.544814 -50.866386 -0.000001 0.000002 -0.000002 -0.461474 3.841596 -39.722683 6.450754 5.820351 -95.892857 2.182887 4.561569 -51.127746 -0.000000 0.000000 -0.000002 0.469723 4.966829 -39.799441 8.181046 5.368617 -113.503018 3.200493 5.218121 -63.022968 -0.000002 0.000000 -0.000001 -3.762439 9.063691 -45.253811 5.342534 5.829004 -85.005297 8.716835 5.103331 -119.369167 -0.000000 -0.000001 -0.000000 3.036127 13.027198 -5.371405 0.000000 0.000000 0.000000 -48.713705 27.172839 83.457057 -0.000071 105.988273 0.000087 -8.345370 17.548102 8.775664 -7.341110 13.749654 7.412344 9.855792 -44.489096 -3.903287 -0.115792 -14.513080 -28.973871 -0.000000 0.000001 -0.000000 -0.124375 -2.384790 45.108864 4.500585 -4.654538 88.071164 1.723226 -3.618373 50.920129 -0.000000 0.000002 -0.000000 -0.761618 -2.932904 39.031058 5.133880 -4.632768 95.881629 1.739748 -3.631702 51.181367 0.000001 0.000001 0.000002 0.154760 -4.068819 39.122675 6.509730 -4.273596 113.462863 2.549587 -4.153926 63.067324 0.000001 -0.000000 0.000001 -4.198877 -8.025513 44.637783 4.252920 -4.639628 85.014839 6.935957 -4.062623 119.322285 -0.000003 -0.000000 -0.000001 -34.255530 5.085944 20.300775 56.771685 -7.634004 3.672694 -20.132971 -7.078570 -17.222815 -1.594031 0.000005 -0.000002 -0.000000 -0.000000 -0.000000 -19.408575 -8.980206 -34.667602 57.007949 -2.876353 -4.766503 -26.306537 -10.338637 26.246277 -0.012999 0.000019 -0.000010 0.000000 -0.000001 0.000000 
2.112597 72.589401 -1.232654 -5.369131 -46.252911 -0.346152 9.571941 7.481884 -1.511645 2.382867 1.109460 -1.073439 0.000000 0.000000 0.000000 2.401568 1.100691 -1.045854 -0.057996 13.152765 4.536975 8.891156 19.766180 -3.891119 -0.000000 0.000000 0.000000 1.183348 3.599426 -8.974601 0.000000 0.000000 0.000000 -53.425497 4.522202 -51.883743 0.000169 -105.213812 0.000175 2.694931 -6.785471 -16.625758 -6.141220 -11.690800 -6.761687 9.914125 42.595519 3.409854 -0.422809 8.108093 27.509115 0.000000 -0.000001 0.000001 0.255310 3.378217 -45.814334 5.654092 5.847753 -88.067448 2.162142 4.544813 -50.866386 -0.000001 -0.000002 -0.000004 -0.461470 3.841592 -39.722686 6.450750 5.820351 -95.892857 2.182888 4.561566 -51.127743 -0.000002 -0.000001 0.000001 0.469727 4.966827 -39.799444 8.181045 5.368614 -113.503018 3.200491 5.218116 -63.022968 0.000000 -0.000000 -0.000001 -3.762433 9.063687 -45.253818 5.342540 5.829000 -85.005297 8.716833 5.103333 -119.369167 0.000003 0.000001 0.000000 3.025168 12.911348 -5.539062 0.000000 0.000000 0.000000 -48.147926 26.895805 84.263573 0.000195 105.577178 -0.000188 -8.085398 17.722237 8.888137 -7.341109 13.749653 7.412342 9.855788 -44.489100 -3.903274 -0.115792 -14.513078 -28.973871 0.000001 0.000001 -0.000000 -0.124374 -2.384789 45.108861 4.500587 -4.654539 88.071164 1.723226 -3.618379 50.920126 -0.000001 0.000002 -0.000001 -0.761616 -2.932903 39.031055 5.133879 -4.632768 95.881629 1.739749 -3.631702 51.181367 -0.000001 -0.000001 -0.000005 0.154761 -4.068819 39.122671 6.509732 -4.273599 113.462863 2.549587 -4.153925 63.067317 -0.000001 0.000001 0.000001 -4.198876 -8.025512 44.637783 4.252921 -4.639628 85.014839 6.935957 -4.062622 119.322285 -0.000003 0.000000 -0.000000 -34.220938 5.182189 20.219076 57.321461 -7.469980 3.446514 -20.755265 -7.502553 -17.018352 -1.584882 -0.000015 -0.000004 -0.000000 -0.000002 -0.000000 -19.344202 -9.036009 -35.213419 57.541379 -3.391480 -4.989758 -26.716300 -10.093129 26.034050 -0.247718 0.000017 0.000005 -0.000000 0.000001 0.000000 
1.977939 72.536362 -0.810303 -5.134058 -45.915957 -0.013827 9.684885 7.528236 -1.647267 2.523092 1.222474 -1.220268 0.000000 0.000000 0.000000 2.545000 1.213378 -1.187300 -0.119663 13.073310 4.516064 8.975793 19.311229 -3.677645 0.000000 0.000000 0.000001 1.271894 3.450430 -9.352719 0.000000 0.000000 0.000000 -53.737692 4.019016 -51.821048 0.000238 -104.376212 0.000243 3.364579 -5.538213 -17.414100 -6.141222 -11.690801 -6.761693 9.914120 42.595515 3.409863 -0.422813 8.108095 27.509120 0.000001 0.000003 0.000000 0.255309 3.378217 -45.814334 5.654091 5.847753 -88.067455 2.162146 4.544816 -50.866382 -0.000000 -0.000001 -0.000003 -0.461472 3.841593 -39.722686 6.450750 5.820349 -95.892857 2.182890 4.561567 -51.127746 -0.000001 0.000000 -0.000001 0.469725 4.966824 -39.799444 8.181043 5.368616 -113.503018 3.200495 5.218119 -63.022975 -0.000000 -0.000000 0.000001 -3.762437 9.063690 -45.253814 5.342537 5.829001 -85.005297 8.716831 5.103331 -119.369167 0.000001 0.000002 0.000001 3.009248 12.882599 -5.845511 0.000000 0.000000 0.000000 -47.901766 26.454228 85.051647 0.000185 105.041793 -0.000208 -8.061782 17.824026 9.078447 -7.341107 13.749655 7.412341 9.855788 -44.489100 -3.903285 -0.115793 -14.513076 -28.973867 -0.000001 -0.000002 -0.000001 -0.124374 -2.384789 45.108861 4.500585 -4.654538 88.071164 1.723226 -3.618378 50.920122 -0.000002 0.000001 0.000002 -0.761616 -2.932903 39.031055 5.133881 -4.632767 95.881635 1.739749 -3.631700 51.181367 -0.000000 -0.000000 0.000002 0.154760 -4.068819 39.122671 6.509728 -4.273600 113.462863 2.549585 -4.153926 63.067324 -0.000002 0.000001 0.000000 -4.198877 -8.025516 44.637783 4.252925 -4.639630 85.014839 6.935958 -4.062623 119.322285 -0.000001 0.000000 -0.000000 -34.241630 5.326806 20.141331 57.474881 -7.324418 3.188411 -21.115765 -8.100488 -16.821327 -1.565029 -0.000022 -0.000001 0.000000 -0.000000 -0.000000 -19.434234 -9.146318 -35.738022 58.060447 -3.910024 -5.119820 -26.746536 -9.765067 25.572061 -0.837865 -0.000017 -0.000008 0.000000 0.000000 -0.000000 
1.785506 72.682373 -0.456762 -4.685670 -45.447847 0.446021 9.746969 7.573283 -1.763621 2.594239 1.326389 -1.342160 0.000000 0.000000 0.000000 2.618629 1.318497 -1.304865 -0.089427 12.994035 4.472787 9.137177 18.829715 -3.485245 0.000001 -0.000000 0.000000 1.361016 3.142956 -9.684679 0.000000 0.000000 0.000000 -54.368514 3.505246 -51.369921 0.000185 -103.901780 0.000198 3.892659 -4.154470 -18.243929 -6.141220 -11.690797 -6.761685 9.914117 42.595508 3.409847 -0.422810 8.108101 27.509116 0.000004 -0.000002 0.000001 0.255312 3.378219 -45.814331 5.654090 5.847752 -88.067448 2.162143 4.544813 -50.866386 0.000001 0.000003 0.000000 -0.461472 3.841596 -39.722683 6.450752 5.820352 -95.892857 2.182892 4.561568 -51.127743 -0.000001 -0.000002 -0.000000 0.469727 4.966827 -39.799444 8.181047 5.368615 -113.503018 3.200491 5.218121 -63.022968 -0.000001 -0.000003 0.000000 -3.762435 9.063687 -45.253814 5.342537 5.829002 -85.005297 8.716832 5.103333 -119.369167 0.000001 0.000002 0.000000 2.995732 13.013986 -6.195491 0.000000 0.000000 0.000000 -48.018142 25.955450 85.661979 0.000072 104.429583 -0.000091 -8.242441 17.789040 9.105813 -7.341108 13.749655 7.412338 9.855784 -44.489100 -3.903273 -0.115795 -14.513076 -28.973874 -0.000001 -0.000004 0.000000 -0.124374 -2.384788 45.108861 4.500582 -4.654537 88.071164 1.723225 -3.618374 50.920122 -0.000001 -0.000002 -0.000001 -0.761616 -2.932902 39.031058 5.133881 -4.632766 95.881629 1.739743 -3.631699 51.181367 0.000000 -0.000001 -0.000001 0.154762 -4.068818 39.122675 6.509730 -4.273598 113.462863 2.549587 -4.153926 63.067324 -0.000002 -0.000000 -0.000002 -4.198875 -8.025514 44.637779 4.252925 -4.639631 85.014839 6.935957 -4.062620 119.322285 -0.000001 -0.000000 -0.000000 -34.319768 5.493443 20.075558 57.239796 -7.208449 2.927228 -21.221126 -8.802031 -16.649440 -1.534998 -0.000010 -0.000000 0.000000 0.000000 0.000000 -19.714614 -9.136490 -36.385886 58.523540 -3.894084 -4.949911 -25.861658 -9.412754 25.287269 -1.583672 0.000009 -0.000002 0.000000 -0.000001 0.000000 
